HIERARCHY
ROOT Hips
{
	OFFSET	0.00	0.00	0.00
	CHANNELS 6 Xposition Yposition Zposition Zrotation Xrotation Yrotation
	JOINT LeftUpLeg
	{
		OFFSET	 0.126116	-0.014019	-0.065224
		CHANNELS 3 Zrotation Xrotation Yrotation
		JOINT LeftLeg
		{
			OFFSET	 0.000000	 0.000000	 0.569914
			CHANNELS 3 Zrotation Xrotation Yrotation
			JOINT LeftFoot
			{
				OFFSET	 0.000000	 0.000000	 0.544423
				CHANNELS 3 Zrotation Xrotation Yrotation
				JOINT LeftToeBase
				{
					OFFSET	 0.000000	 0.000000	 0.207117
					CHANNELS 3 Zrotation Xrotation Yrotation
					End Site
					{
						OFFSET	 0.000000	 0.000000	 0.207117
					}
				}
			}
		}
	}
	JOINT RightUpLeg
	{
		OFFSET	-0.124023	-0.008373	-0.065224
		CHANNELS 3 Zrotation Xrotation Yrotation
		JOINT RightLeg
		{
			OFFSET	 0.000000	 0.000000	 0.570047
			CHANNELS 3 Zrotation Xrotation Yrotation
			JOINT RightFoot
			{
				OFFSET	 0.000000	 0.000000	 0.544354
				CHANNELS 3 Zrotation Xrotation Yrotation
				JOINT RightToeBase
				{
					OFFSET	 0.000000	 0.000000	 0.207540
					CHANNELS 3 Zrotation Xrotation Yrotation
					End Site
					{
						OFFSET	 0.000000	 0.000000	 0.207540
					}
				}
			}
		}
	}
	JOINT Spine
	{
		OFFSET	 0.000184	-0.007763	 0.117403
		CHANNELS 3 Zrotation Xrotation Yrotation
		JOINT Spine1
		{
			OFFSET	 0.000000	 0.000000	 0.137269
			CHANNELS 3 Zrotation Xrotation Yrotation
			JOINT Spine2
			{
				OFFSET	 0.000000	 0.000000	 0.156879
				CHANNELS 3 Zrotation Xrotation Yrotation
				JOINT LeftShoulder
				{
					OFFSET	 0.080501	-0.002496	 0.160144
					CHANNELS 3 Zrotation Xrotation Yrotation
					JOINT LeftArm
					{
						OFFSET	 0.000000	 0.000000	 0.164363
						CHANNELS 3 Zrotation Xrotation Yrotation
						JOINT LeftForeArm
						{
							OFFSET	 0.000000	 0.000000	 0.364576
							CHANNELS 3 Zrotation Xrotation Yrotation
							JOINT LeftHand
							{
								OFFSET	 0.000000	 0.000000	 0.360812
								CHANNELS 3 Zrotation Xrotation Yrotation
								JOINT LeftHandIndex1
								{
									OFFSET	 0.000000	 0.000000	 0.086006
									CHANNELS 3 Zrotation Xrotation Yrotation
									JOINT LeftHandIndex2
									{
										OFFSET	 0.000000	 0.000000	 0.047236
										CHANNELS 3 Zrotation Xrotation Yrotation
										JOINT LeftHandIndex3
										{
											OFFSET	-0.004284	-0.000551	 0.038166
											CHANNELS 3 Zrotation Xrotation Yrotation
											End Site
											{
												OFFSET	-0.004284	-0.000551	 0.038166
											}
										}
									}
								}
							}
						}
					}
				}
				JOINT Neck
				{
					OFFSET	 0.000000	 0.000000	 0.176489
					CHANNELS 3 Zrotation Xrotation Yrotation
					JOINT Head
					{
						OFFSET	 0.000000	-0.001747	 0.077940
						CHANNELS 3 Zrotation Xrotation Yrotation
						End Site
						{
							OFFSET	 0.000000	-0.001747	 0.077940
						}
					}
				}
				JOINT RightShoulder
				{
					OFFSET	-0.080363	 0.000306	 0.159706
					CHANNELS 3 Zrotation Xrotation Yrotation
					JOINT RightArm
					{
						OFFSET	 0.000000	 0.000000	 0.164196
						CHANNELS 3 Zrotation Xrotation Yrotation
						JOINT RightForeArm
						{
							OFFSET	 0.000000	 0.000000	 0.365611
							CHANNELS 3 Zrotation Xrotation Yrotation
							JOINT RightHand
							{
								OFFSET	 0.000000	 0.000000	 0.360648
								CHANNELS 3 Zrotation Xrotation Yrotation
								JOINT RightHandIndex1
								{
									OFFSET	 0.000000	 0.000000	 0.069977
									CHANNELS 3 Zrotation Xrotation Yrotation
									JOINT RightHandIndex2
									{
										OFFSET	 0.000000	 0.000000	 0.052305
										CHANNELS 3 Zrotation Xrotation Yrotation
										JOINT RightHandIndex3
										{
											OFFSET	 0.009002	-0.000782	 0.042196
											CHANNELS 3 Zrotation Xrotation Yrotation
											End Site
											{
												OFFSET	 0.009002	-0.000782	 0.042196
											}
										}
									}
								}
							}
						}
					}
				}
			}
		}
	}
}
MOTION
Frames:    5
Frame Time: 0.03333334
-1.111951	-8.835193	 0.645637	-23.225810	 1.986924	 0.445512	 2.320041	-34.172620	 172.450100	-5.448378	-67.031940	-5.773882	 176.681500	 87.292020	-179.352900	-2.336925	 36.088970	-0.175347	 0.115419	-35.664670	-177.549900	 1.564823	-71.131680	 4.338867	-177.436200	 85.772010	 179.199700	 2.405622	 20.831910	-0.156543	-1.184653	 14.433640	 1.374407	-1.319252	 7.720862	-1.863055	-1.248346	 4.753002	-0.030824	-130.189000	 89.475120	-138.218600	 48.042390	 61.185720	-76.637150	-13.137500	-2.341991	-19.425750	 0.381817	-10.774620	-5.450766	-3.812334	 37.924440	-2.927599	-2.450526	 36.184240	 0.754587	-1.378229	 35.397820	-2.634230	 1.694298	 2.362363	-3.104488	 0.325431	 7.729993	 3.331747	 94.123230	 85.987560	 171.217300	-54.060250	 70.704140	 73.227390	-6.551385	-12.279740	 20.729630	-26.096950	-11.670040	 9.725231	 6.437017	 35.671460	-0.771858	 2.830251	 35.756010	-7.813440	-2.350882	 35.473990	 5.254307
-1.107552	-8.833176	 0.661566	-24.396830	 4.085446	 0.084453	 2.743239	-35.166840	 172.909100	-4.487652	-64.771240	-4.391644	 174.845000	 88.252250	-177.121700	-2.352075	 34.197300	-0.129716	 0.866907	-36.734020	-177.403800	 0.849053	-68.412480	 4.085251	-176.022400	 86.636630	 177.907000	 2.406497	 20.032130	-0.172467	-0.430275	 14.420310	 1.217048	 0.041286	 7.408395	-1.833054	 0.555891	 4.481999	 0.015042	-122.527100	 89.375990	-145.919000	 45.588900	 61.008710	-75.128660	-13.289710	-2.355375	-18.413370	 0.307050	-14.208310	-5.520066	-3.812334	 37.924440	-2.927599	-2.450526	 36.184240	 0.754587	-1.378229	 35.397820	-2.634230	 1.920773	 2.120514	-2.978658	 0.951468	 7.502688	 4.024405	 94.349760	 86.043940	 170.858800	-54.017810	 71.282490	 72.739140	-6.469897	-11.951700	 19.977330	-25.646890	-15.054280	 9.855906	 6.437017	 35.671460	-0.771858	 2.830251	 35.756010	-7.813440	-2.350882	 35.473990	 5.254307
-1.103018	-8.832250	 0.676564	-25.807290	 5.841931	-0.416290	 3.528297	-35.596660	 173.576800	-4.217037	-62.484310	-3.435510	 167.861900	 89.227970	-169.839100	-2.363440	 32.566980	-0.091665	 1.698797	-37.923900	-176.934200	-0.815962	-66.461640	 3.025729	-172.640900	 87.931810	 174.192800	 2.407042	 19.362760	-0.185724	 0.600451	 14.788230	 1.257112	 1.736007	 7.308707	-1.757831	 2.609513	 4.278178	 0.075283	-119.015900	 89.310450	-149.439900	 43.269170	 60.806370	-74.323810	-13.563220	-2.382555	-17.365730	 0.222631	-18.471450	-5.636825	-3.812334	 37.924440	-2.927599	-2.450526	 36.184240	 0.754587	-1.378229	 35.397820	-2.634230	 2.180508	 1.895791	-2.862704	 1.610264	 7.315551	 4.588995	 94.491870	 86.086630	 170.651400	-53.769720	 72.007970	 71.933910	-6.633788	-11.583130	 18.911540	-25.343350	-19.258530	 10.065570	 6.437017	 35.671460	-0.771858	 2.830251	 35.756010	-7.813440	-2.350882	 35.473990	 5.254307
-1.100828	-8.832529	 0.686145	-26.537800	 6.914821	-0.657422	 4.154047	-35.717930	 173.970300	-4.010405	-60.858300	-2.719786	 130.682400	 89.786020	-132.375400	-2.368137	 31.823800	-0.074661	 1.880406	-38.271920	-176.665300	-2.002217	-64.892840	 1.989082	-169.154200	 88.607030	 170.301500	 2.407108	 19.265080	-0.187654	 1.345412	 15.141280	 1.191994	 3.024007	 7.386243	-1.737835	 4.233316	 4.233365	 0.123822	-118.135600	 89.304230	-150.389700	 41.804390	 60.928500	-74.500400	-13.622670	-2.547214	-16.397640	 0.673214	-22.244530	-5.765430	-3.812334	 37.924440	-2.927599	-2.450526	 36.184240	 0.754587	-1.378229	 35.397820	-2.634230	 2.264597	 1.879366	-2.761013	 2.120244	 7.212863	 4.576590	 94.610030	 86.130920	 170.497500	-53.153440	 72.722400	 70.817710	-6.922507	-11.215930	 17.774880	-25.259320	-22.975080	 10.296910	 6.437017	 35.671460	-0.771858	 2.830251	 35.756010	-7.813440	-2.350882	 35.473990	 5.254307
-1.099907	-8.832337	 0.694918	-26.531530	 7.946480	-0.677000	 4.447886	-36.132910	 174.099700	-3.500774	-59.373560	-1.988050	 28.972370	 89.670160	-30.320740	-2.369087	 31.666630	-0.071095	 1.442315	-38.506560	-176.582800	-2.316218	-63.284350	 1.314331	-163.147800	 89.097560	 164.014300	 2.406902	 19.554840	-0.181924	 1.965807	 15.227610	 0.899043	 4.262449	 7.443368	-1.919799	 5.942292	 4.251875	 0.172923	-120.085400	 89.379140	-148.612500	 40.853190	 61.166390	-75.309670	-14.016910	-2.625076	-15.525520	 0.767199	-26.690720	-5.962811	-3.812334	 37.924440	-2.927599	-2.450526	 36.184240	 0.754587	-1.378229	 35.397820	-2.634230	 2.150411	 2.014665	-2.716302	 2.667407	 7.136884	 4.263198	 94.636690	 86.102880	 170.394500	-51.616910	 73.803030	 68.504290	-7.182962	-10.740710	 16.362940	-25.220550	-27.360190	 10.641400	 6.437017	 35.671460	-0.771858	 2.830251	 35.756010	-7.813440	-2.350882	 35.473990	 5.254307
